<mxfile host="app.diagrams.net" modified="2023-09-09T14:46:37.376Z" agent="Mozilla/5.0 (X11; Linux x86_64) AppleWebKit/537.36 (KHTML, like Gecko) Chrome/116.0.0.0 Safari/537.36" etag="86omQnhtwQoSsvOlSpcw" version="21.7.4" type="device">
  <diagram name="Page-1" id="3iJhMCqtSs_EPttf88cd">
    <mxGraphModel dx="1877" dy="1055" grid="1" gridSize="10" guides="1" tooltips="1" connect="1" arrows="1" fold="1" page="1" pageScale="1" pageWidth="850" pageHeight="1100" math="0" shadow="0">
      <root>
        <mxCell id="0" />
        <mxCell id="1" parent="0" />
        <mxCell id="t_ZIJ9nXfUMjoGaq77Y5-41" value="" style="endArrow=none;html=1;rounded=0;strokeWidth=2;strokeColor=#05C3DE;startArrow=oval;startFill=0;startSize=12;entryX=0.25;entryY=1;entryDx=0;entryDy=0;" parent="1" edge="1" target="a1RNS2GRwDBVDoqZBIgc-1">
          <mxGeometry width="50" height="50" relative="1" as="geometry">
            <mxPoint x="100" y="840" as="sourcePoint" />
            <mxPoint x="400" y="430" as="targetPoint" />
          </mxGeometry>
        </mxCell>
        <mxCell id="t_ZIJ9nXfUMjoGaq77Y5-52" value="" style="endArrow=none;html=1;rounded=0;strokeWidth=2;strokeColor=#05C3DE;startArrow=none;startFill=0;startSize=12;exitX=0.25;exitY=0;exitDx=0;exitDy=0;entryX=0.25;entryY=1;entryDx=0;entryDy=0;" parent="1" edge="1" target="a1RNS2GRwDBVDoqZBIgc-6" source="a1RNS2GRwDBVDoqZBIgc-1">
          <mxGeometry width="50" height="50" relative="1" as="geometry">
            <mxPoint x="480" y="430" as="sourcePoint" />
            <mxPoint x="560" y="430" as="targetPoint" />
          </mxGeometry>
        </mxCell>
        <mxCell id="a1RNS2GRwDBVDoqZBIgc-1" value="" style="rounded=0;whiteSpace=wrap;html=1;strokeColor=#00A499;strokeWidth=2;shadow=1;" vertex="1" parent="1">
          <mxGeometry x="80" y="760" width="80" height="40" as="geometry" />
        </mxCell>
        <mxCell id="a1RNS2GRwDBVDoqZBIgc-2" value="" style="endArrow=none;html=1;rounded=0;strokeWidth=2;strokeColor=#05C3DE;startArrow=oval;startFill=0;startSize=12;entryX=0.25;entryY=1;entryDx=0;entryDy=0;" edge="1" parent="1">
          <mxGeometry width="50" height="50" relative="1" as="geometry">
            <mxPoint x="140" y="840" as="sourcePoint" />
            <mxPoint x="140" y="800" as="targetPoint" />
          </mxGeometry>
        </mxCell>
        <mxCell id="a1RNS2GRwDBVDoqZBIgc-3" value="" style="endArrow=none;html=1;rounded=0;strokeWidth=2;strokeColor=#05C3DE;startArrow=oval;startFill=0;startSize=12;entryX=0.25;entryY=1;entryDx=0;entryDy=0;" edge="1" parent="1" target="a1RNS2GRwDBVDoqZBIgc-4">
          <mxGeometry width="50" height="50" relative="1" as="geometry">
            <mxPoint x="220" y="840" as="sourcePoint" />
            <mxPoint x="520" y="430" as="targetPoint" />
          </mxGeometry>
        </mxCell>
        <mxCell id="a1RNS2GRwDBVDoqZBIgc-4" value="" style="rounded=0;whiteSpace=wrap;html=1;strokeColor=#00A499;strokeWidth=2;shadow=1;" vertex="1" parent="1">
          <mxGeometry x="200" y="760" width="80" height="40" as="geometry" />
        </mxCell>
        <mxCell id="a1RNS2GRwDBVDoqZBIgc-5" value="" style="endArrow=none;html=1;rounded=0;strokeWidth=2;strokeColor=#05C3DE;startArrow=oval;startFill=0;startSize=12;entryX=0.25;entryY=1;entryDx=0;entryDy=0;" edge="1" parent="1">
          <mxGeometry width="50" height="50" relative="1" as="geometry">
            <mxPoint x="260" y="840" as="sourcePoint" />
            <mxPoint x="260" y="800" as="targetPoint" />
          </mxGeometry>
        </mxCell>
        <mxCell id="a1RNS2GRwDBVDoqZBIgc-6" value="" style="rounded=0;whiteSpace=wrap;html=1;strokeColor=#00A499;strokeWidth=2;shadow=1;" vertex="1" parent="1">
          <mxGeometry x="80" y="680" width="80" height="40" as="geometry" />
        </mxCell>
        <mxCell id="a1RNS2GRwDBVDoqZBIgc-7" value="" style="rounded=0;whiteSpace=wrap;html=1;strokeColor=#00A499;strokeWidth=2;shadow=1;" vertex="1" parent="1">
          <mxGeometry x="200" y="680" width="80" height="40" as="geometry" />
        </mxCell>
        <mxCell id="a1RNS2GRwDBVDoqZBIgc-8" value="" style="endArrow=none;html=1;rounded=0;strokeWidth=2;strokeColor=#05C3DE;startArrow=none;startFill=0;startSize=12;exitX=0.25;exitY=0;exitDx=0;exitDy=0;entryX=0.25;entryY=1;entryDx=0;entryDy=0;" edge="1" parent="1">
          <mxGeometry width="50" height="50" relative="1" as="geometry">
            <mxPoint x="260" y="760" as="sourcePoint" />
            <mxPoint x="260" y="720" as="targetPoint" />
          </mxGeometry>
        </mxCell>
        <mxCell id="a1RNS2GRwDBVDoqZBIgc-9" value="" style="endArrow=none;html=1;rounded=0;strokeWidth=2;strokeColor=#05C3DE;startArrow=none;startFill=0;startSize=12;exitX=0.75;exitY=0;exitDx=0;exitDy=0;entryX=0.25;entryY=1;entryDx=0;entryDy=0;" edge="1" parent="1" source="a1RNS2GRwDBVDoqZBIgc-1" target="a1RNS2GRwDBVDoqZBIgc-7">
          <mxGeometry width="50" height="50" relative="1" as="geometry">
            <mxPoint x="120" y="780" as="sourcePoint" />
            <mxPoint x="120" y="740" as="targetPoint" />
          </mxGeometry>
        </mxCell>
        <mxCell id="a1RNS2GRwDBVDoqZBIgc-10" value="" style="endArrow=none;html=1;rounded=0;strokeWidth=2;strokeColor=#05C3DE;startArrow=none;startFill=0;startSize=12;exitX=0.25;exitY=0;exitDx=0;exitDy=0;entryX=0.75;entryY=1;entryDx=0;entryDy=0;" edge="1" parent="1" source="a1RNS2GRwDBVDoqZBIgc-4" target="a1RNS2GRwDBVDoqZBIgc-6">
          <mxGeometry width="50" height="50" relative="1" as="geometry">
            <mxPoint x="130" y="790" as="sourcePoint" />
            <mxPoint x="130" y="750" as="targetPoint" />
          </mxGeometry>
        </mxCell>
        <mxCell id="a1RNS2GRwDBVDoqZBIgc-11" value="" style="endArrow=none;html=1;rounded=0;strokeWidth=2;strokeColor=#05C3DE;startArrow=oval;startFill=0;startSize=12;entryX=0.25;entryY=1;entryDx=0;entryDy=0;" edge="1" parent="1" target="a1RNS2GRwDBVDoqZBIgc-13">
          <mxGeometry width="50" height="50" relative="1" as="geometry">
            <mxPoint x="340" y="840" as="sourcePoint" />
            <mxPoint x="640" y="430" as="targetPoint" />
          </mxGeometry>
        </mxCell>
        <mxCell id="a1RNS2GRwDBVDoqZBIgc-12" value="" style="endArrow=none;html=1;rounded=0;strokeWidth=2;strokeColor=#05C3DE;startArrow=none;startFill=0;startSize=12;exitX=0.25;exitY=0;exitDx=0;exitDy=0;entryX=0.25;entryY=1;entryDx=0;entryDy=0;" edge="1" parent="1" source="a1RNS2GRwDBVDoqZBIgc-13" target="a1RNS2GRwDBVDoqZBIgc-18">
          <mxGeometry width="50" height="50" relative="1" as="geometry">
            <mxPoint x="720" y="430" as="sourcePoint" />
            <mxPoint x="800" y="430" as="targetPoint" />
          </mxGeometry>
        </mxCell>
        <mxCell id="a1RNS2GRwDBVDoqZBIgc-13" value="" style="rounded=0;whiteSpace=wrap;html=1;strokeColor=#00A499;strokeWidth=2;shadow=1;" vertex="1" parent="1">
          <mxGeometry x="320" y="760" width="80" height="40" as="geometry" />
        </mxCell>
        <mxCell id="a1RNS2GRwDBVDoqZBIgc-14" value="" style="endArrow=none;html=1;rounded=0;strokeWidth=2;strokeColor=#05C3DE;startArrow=oval;startFill=0;startSize=12;entryX=0.25;entryY=1;entryDx=0;entryDy=0;" edge="1" parent="1">
          <mxGeometry width="50" height="50" relative="1" as="geometry">
            <mxPoint x="380" y="840" as="sourcePoint" />
            <mxPoint x="380" y="800" as="targetPoint" />
          </mxGeometry>
        </mxCell>
        <mxCell id="a1RNS2GRwDBVDoqZBIgc-15" value="" style="endArrow=none;html=1;rounded=0;strokeWidth=2;strokeColor=#05C3DE;startArrow=oval;startFill=0;startSize=12;entryX=0.25;entryY=1;entryDx=0;entryDy=0;" edge="1" parent="1" target="a1RNS2GRwDBVDoqZBIgc-16">
          <mxGeometry width="50" height="50" relative="1" as="geometry">
            <mxPoint x="460" y="840" as="sourcePoint" />
            <mxPoint x="760" y="430" as="targetPoint" />
          </mxGeometry>
        </mxCell>
        <mxCell id="a1RNS2GRwDBVDoqZBIgc-16" value="" style="rounded=0;whiteSpace=wrap;html=1;strokeColor=#00A499;strokeWidth=2;shadow=1;" vertex="1" parent="1">
          <mxGeometry x="440" y="760" width="80" height="40" as="geometry" />
        </mxCell>
        <mxCell id="a1RNS2GRwDBVDoqZBIgc-17" value="" style="endArrow=none;html=1;rounded=0;strokeWidth=2;strokeColor=#05C3DE;startArrow=oval;startFill=0;startSize=12;entryX=0.25;entryY=1;entryDx=0;entryDy=0;" edge="1" parent="1">
          <mxGeometry width="50" height="50" relative="1" as="geometry">
            <mxPoint x="500" y="840" as="sourcePoint" />
            <mxPoint x="500" y="800" as="targetPoint" />
          </mxGeometry>
        </mxCell>
        <mxCell id="a1RNS2GRwDBVDoqZBIgc-18" value="" style="rounded=0;whiteSpace=wrap;html=1;strokeColor=#00A499;strokeWidth=2;shadow=1;" vertex="1" parent="1">
          <mxGeometry x="320" y="680" width="80" height="40" as="geometry" />
        </mxCell>
        <mxCell id="a1RNS2GRwDBVDoqZBIgc-19" value="" style="rounded=0;whiteSpace=wrap;html=1;strokeColor=#00A499;strokeWidth=2;shadow=1;" vertex="1" parent="1">
          <mxGeometry x="440" y="680" width="80" height="40" as="geometry" />
        </mxCell>
        <mxCell id="a1RNS2GRwDBVDoqZBIgc-20" value="" style="endArrow=none;html=1;rounded=0;strokeWidth=2;strokeColor=#05C3DE;startArrow=none;startFill=0;startSize=12;exitX=0.25;exitY=0;exitDx=0;exitDy=0;entryX=0.25;entryY=1;entryDx=0;entryDy=0;" edge="1" parent="1">
          <mxGeometry width="50" height="50" relative="1" as="geometry">
            <mxPoint x="500" y="760" as="sourcePoint" />
            <mxPoint x="500" y="720" as="targetPoint" />
          </mxGeometry>
        </mxCell>
        <mxCell id="a1RNS2GRwDBVDoqZBIgc-21" value="" style="endArrow=none;html=1;rounded=0;strokeWidth=2;strokeColor=#05C3DE;startArrow=none;startFill=0;startSize=12;exitX=0.75;exitY=0;exitDx=0;exitDy=0;entryX=0.25;entryY=1;entryDx=0;entryDy=0;" edge="1" parent="1" source="a1RNS2GRwDBVDoqZBIgc-13" target="a1RNS2GRwDBVDoqZBIgc-19">
          <mxGeometry width="50" height="50" relative="1" as="geometry">
            <mxPoint x="360" y="780" as="sourcePoint" />
            <mxPoint x="360" y="740" as="targetPoint" />
          </mxGeometry>
        </mxCell>
        <mxCell id="a1RNS2GRwDBVDoqZBIgc-22" value="" style="endArrow=none;html=1;rounded=0;strokeWidth=2;strokeColor=#05C3DE;startArrow=none;startFill=0;startSize=12;exitX=0.25;exitY=0;exitDx=0;exitDy=0;entryX=0.75;entryY=1;entryDx=0;entryDy=0;" edge="1" parent="1" source="a1RNS2GRwDBVDoqZBIgc-16" target="a1RNS2GRwDBVDoqZBIgc-18">
          <mxGeometry width="50" height="50" relative="1" as="geometry">
            <mxPoint x="370" y="790" as="sourcePoint" />
            <mxPoint x="370" y="750" as="targetPoint" />
          </mxGeometry>
        </mxCell>
        <mxCell id="a1RNS2GRwDBVDoqZBIgc-23" value="" style="endArrow=none;html=1;rounded=0;strokeWidth=2;strokeColor=#05C3DE;startArrow=oval;startFill=0;startSize=12;entryX=0.25;entryY=1;entryDx=0;entryDy=0;" edge="1" parent="1" target="a1RNS2GRwDBVDoqZBIgc-25">
          <mxGeometry width="50" height="50" relative="1" as="geometry">
            <mxPoint x="580" y="840" as="sourcePoint" />
            <mxPoint x="880" y="430" as="targetPoint" />
          </mxGeometry>
        </mxCell>
        <mxCell id="a1RNS2GRwDBVDoqZBIgc-24" value="" style="endArrow=none;html=1;rounded=0;strokeWidth=2;strokeColor=#05C3DE;startArrow=none;startFill=0;startSize=12;exitX=0.25;exitY=0;exitDx=0;exitDy=0;entryX=0.25;entryY=1;entryDx=0;entryDy=0;" edge="1" parent="1" source="a1RNS2GRwDBVDoqZBIgc-25" target="a1RNS2GRwDBVDoqZBIgc-30">
          <mxGeometry width="50" height="50" relative="1" as="geometry">
            <mxPoint x="960" y="430" as="sourcePoint" />
            <mxPoint x="1040" y="430" as="targetPoint" />
          </mxGeometry>
        </mxCell>
        <mxCell id="a1RNS2GRwDBVDoqZBIgc-25" value="" style="rounded=0;whiteSpace=wrap;html=1;strokeColor=#00A499;strokeWidth=2;shadow=1;" vertex="1" parent="1">
          <mxGeometry x="560" y="760" width="80" height="40" as="geometry" />
        </mxCell>
        <mxCell id="a1RNS2GRwDBVDoqZBIgc-26" value="" style="endArrow=none;html=1;rounded=0;strokeWidth=2;strokeColor=#05C3DE;startArrow=oval;startFill=0;startSize=12;entryX=0.25;entryY=1;entryDx=0;entryDy=0;" edge="1" parent="1">
          <mxGeometry width="50" height="50" relative="1" as="geometry">
            <mxPoint x="620" y="840" as="sourcePoint" />
            <mxPoint x="620" y="800" as="targetPoint" />
          </mxGeometry>
        </mxCell>
        <mxCell id="a1RNS2GRwDBVDoqZBIgc-27" value="" style="endArrow=none;html=1;rounded=0;strokeWidth=2;strokeColor=#05C3DE;startArrow=oval;startFill=0;startSize=12;entryX=0.25;entryY=1;entryDx=0;entryDy=0;" edge="1" parent="1" target="a1RNS2GRwDBVDoqZBIgc-28">
          <mxGeometry width="50" height="50" relative="1" as="geometry">
            <mxPoint x="700" y="840" as="sourcePoint" />
            <mxPoint x="1000" y="430" as="targetPoint" />
          </mxGeometry>
        </mxCell>
        <mxCell id="a1RNS2GRwDBVDoqZBIgc-28" value="" style="rounded=0;whiteSpace=wrap;html=1;strokeColor=#00A499;strokeWidth=2;shadow=1;" vertex="1" parent="1">
          <mxGeometry x="680" y="760" width="80" height="40" as="geometry" />
        </mxCell>
        <mxCell id="a1RNS2GRwDBVDoqZBIgc-29" value="" style="endArrow=none;html=1;rounded=0;strokeWidth=2;strokeColor=#05C3DE;startArrow=oval;startFill=0;startSize=12;entryX=0.25;entryY=1;entryDx=0;entryDy=0;" edge="1" parent="1">
          <mxGeometry width="50" height="50" relative="1" as="geometry">
            <mxPoint x="740" y="840" as="sourcePoint" />
            <mxPoint x="740" y="800" as="targetPoint" />
          </mxGeometry>
        </mxCell>
        <mxCell id="a1RNS2GRwDBVDoqZBIgc-30" value="" style="rounded=0;whiteSpace=wrap;html=1;strokeColor=#00A499;strokeWidth=2;shadow=1;" vertex="1" parent="1">
          <mxGeometry x="560" y="680" width="80" height="40" as="geometry" />
        </mxCell>
        <mxCell id="a1RNS2GRwDBVDoqZBIgc-31" value="" style="rounded=0;whiteSpace=wrap;html=1;strokeColor=#00A499;strokeWidth=2;shadow=1;" vertex="1" parent="1">
          <mxGeometry x="680" y="680" width="80" height="40" as="geometry" />
        </mxCell>
        <mxCell id="a1RNS2GRwDBVDoqZBIgc-32" value="" style="endArrow=none;html=1;rounded=0;strokeWidth=2;strokeColor=#05C3DE;startArrow=none;startFill=0;startSize=12;exitX=0.25;exitY=0;exitDx=0;exitDy=0;entryX=0.25;entryY=1;entryDx=0;entryDy=0;" edge="1" parent="1">
          <mxGeometry width="50" height="50" relative="1" as="geometry">
            <mxPoint x="740" y="760" as="sourcePoint" />
            <mxPoint x="740" y="720" as="targetPoint" />
          </mxGeometry>
        </mxCell>
        <mxCell id="a1RNS2GRwDBVDoqZBIgc-33" value="" style="endArrow=none;html=1;rounded=0;strokeWidth=2;strokeColor=#05C3DE;startArrow=none;startFill=0;startSize=12;exitX=0.75;exitY=0;exitDx=0;exitDy=0;entryX=0.25;entryY=1;entryDx=0;entryDy=0;" edge="1" parent="1" source="a1RNS2GRwDBVDoqZBIgc-25" target="a1RNS2GRwDBVDoqZBIgc-31">
          <mxGeometry width="50" height="50" relative="1" as="geometry">
            <mxPoint x="600" y="780" as="sourcePoint" />
            <mxPoint x="600" y="740" as="targetPoint" />
          </mxGeometry>
        </mxCell>
        <mxCell id="a1RNS2GRwDBVDoqZBIgc-34" value="" style="endArrow=none;html=1;rounded=0;strokeWidth=2;strokeColor=#05C3DE;startArrow=none;startFill=0;startSize=12;exitX=0.25;exitY=0;exitDx=0;exitDy=0;entryX=0.75;entryY=1;entryDx=0;entryDy=0;" edge="1" parent="1" source="a1RNS2GRwDBVDoqZBIgc-28" target="a1RNS2GRwDBVDoqZBIgc-30">
          <mxGeometry width="50" height="50" relative="1" as="geometry">
            <mxPoint x="610" y="790" as="sourcePoint" />
            <mxPoint x="610" y="750" as="targetPoint" />
          </mxGeometry>
        </mxCell>
        <mxCell id="a1RNS2GRwDBVDoqZBIgc-35" value="" style="endArrow=none;html=1;rounded=0;strokeWidth=2;strokeColor=#05C3DE;startArrow=oval;startFill=0;startSize=12;entryX=0.25;entryY=1;entryDx=0;entryDy=0;" edge="1" parent="1" target="a1RNS2GRwDBVDoqZBIgc-37">
          <mxGeometry width="50" height="50" relative="1" as="geometry">
            <mxPoint x="820" y="840" as="sourcePoint" />
            <mxPoint x="1120" y="430" as="targetPoint" />
          </mxGeometry>
        </mxCell>
        <mxCell id="a1RNS2GRwDBVDoqZBIgc-36" value="" style="endArrow=none;html=1;rounded=0;strokeWidth=2;strokeColor=#05C3DE;startArrow=none;startFill=0;startSize=12;exitX=0.25;exitY=0;exitDx=0;exitDy=0;entryX=0.25;entryY=1;entryDx=0;entryDy=0;" edge="1" parent="1" source="a1RNS2GRwDBVDoqZBIgc-37" target="a1RNS2GRwDBVDoqZBIgc-42">
          <mxGeometry width="50" height="50" relative="1" as="geometry">
            <mxPoint x="1200" y="430" as="sourcePoint" />
            <mxPoint x="1280" y="430" as="targetPoint" />
          </mxGeometry>
        </mxCell>
        <mxCell id="a1RNS2GRwDBVDoqZBIgc-37" value="" style="rounded=0;whiteSpace=wrap;html=1;strokeColor=#00A499;strokeWidth=2;shadow=1;" vertex="1" parent="1">
          <mxGeometry x="800" y="760" width="80" height="40" as="geometry" />
        </mxCell>
        <mxCell id="a1RNS2GRwDBVDoqZBIgc-38" value="" style="endArrow=none;html=1;rounded=0;strokeWidth=2;strokeColor=#05C3DE;startArrow=oval;startFill=0;startSize=12;entryX=0.25;entryY=1;entryDx=0;entryDy=0;" edge="1" parent="1">
          <mxGeometry width="50" height="50" relative="1" as="geometry">
            <mxPoint x="860" y="840" as="sourcePoint" />
            <mxPoint x="860" y="800" as="targetPoint" />
          </mxGeometry>
        </mxCell>
        <mxCell id="a1RNS2GRwDBVDoqZBIgc-39" value="" style="endArrow=none;html=1;rounded=0;strokeWidth=2;strokeColor=#05C3DE;startArrow=oval;startFill=0;startSize=12;entryX=0.25;entryY=1;entryDx=0;entryDy=0;" edge="1" parent="1" target="a1RNS2GRwDBVDoqZBIgc-40">
          <mxGeometry width="50" height="50" relative="1" as="geometry">
            <mxPoint x="940" y="840" as="sourcePoint" />
            <mxPoint x="1240" y="430" as="targetPoint" />
          </mxGeometry>
        </mxCell>
        <mxCell id="a1RNS2GRwDBVDoqZBIgc-40" value="" style="rounded=0;whiteSpace=wrap;html=1;strokeColor=#00A499;strokeWidth=2;shadow=1;" vertex="1" parent="1">
          <mxGeometry x="920" y="760" width="80" height="40" as="geometry" />
        </mxCell>
        <mxCell id="a1RNS2GRwDBVDoqZBIgc-41" value="" style="endArrow=none;html=1;rounded=0;strokeWidth=2;strokeColor=#05C3DE;startArrow=oval;startFill=0;startSize=12;entryX=0.25;entryY=1;entryDx=0;entryDy=0;" edge="1" parent="1">
          <mxGeometry width="50" height="50" relative="1" as="geometry">
            <mxPoint x="980" y="840" as="sourcePoint" />
            <mxPoint x="980" y="800" as="targetPoint" />
          </mxGeometry>
        </mxCell>
        <mxCell id="a1RNS2GRwDBVDoqZBIgc-42" value="" style="rounded=0;whiteSpace=wrap;html=1;strokeColor=#00A499;strokeWidth=2;shadow=1;" vertex="1" parent="1">
          <mxGeometry x="800" y="680" width="80" height="40" as="geometry" />
        </mxCell>
        <mxCell id="a1RNS2GRwDBVDoqZBIgc-43" value="" style="rounded=0;whiteSpace=wrap;html=1;strokeColor=#00A499;strokeWidth=2;shadow=1;" vertex="1" parent="1">
          <mxGeometry x="920" y="680" width="80" height="40" as="geometry" />
        </mxCell>
        <mxCell id="a1RNS2GRwDBVDoqZBIgc-44" value="" style="endArrow=none;html=1;rounded=0;strokeWidth=2;strokeColor=#05C3DE;startArrow=none;startFill=0;startSize=12;exitX=0.25;exitY=0;exitDx=0;exitDy=0;entryX=0.25;entryY=1;entryDx=0;entryDy=0;" edge="1" parent="1">
          <mxGeometry width="50" height="50" relative="1" as="geometry">
            <mxPoint x="980" y="760" as="sourcePoint" />
            <mxPoint x="980" y="720" as="targetPoint" />
          </mxGeometry>
        </mxCell>
        <mxCell id="a1RNS2GRwDBVDoqZBIgc-45" value="" style="endArrow=none;html=1;rounded=0;strokeWidth=2;strokeColor=#05C3DE;startArrow=none;startFill=0;startSize=12;exitX=0.75;exitY=0;exitDx=0;exitDy=0;entryX=0.25;entryY=1;entryDx=0;entryDy=0;" edge="1" parent="1" source="a1RNS2GRwDBVDoqZBIgc-37" target="a1RNS2GRwDBVDoqZBIgc-43">
          <mxGeometry width="50" height="50" relative="1" as="geometry">
            <mxPoint x="840" y="780" as="sourcePoint" />
            <mxPoint x="840" y="740" as="targetPoint" />
          </mxGeometry>
        </mxCell>
        <mxCell id="a1RNS2GRwDBVDoqZBIgc-46" value="" style="endArrow=none;html=1;rounded=0;strokeWidth=2;strokeColor=#05C3DE;startArrow=none;startFill=0;startSize=12;exitX=0.25;exitY=0;exitDx=0;exitDy=0;entryX=0.75;entryY=1;entryDx=0;entryDy=0;" edge="1" parent="1" source="a1RNS2GRwDBVDoqZBIgc-40" target="a1RNS2GRwDBVDoqZBIgc-42">
          <mxGeometry width="50" height="50" relative="1" as="geometry">
            <mxPoint x="850" y="790" as="sourcePoint" />
            <mxPoint x="850" y="750" as="targetPoint" />
          </mxGeometry>
        </mxCell>
        <mxCell id="a1RNS2GRwDBVDoqZBIgc-47" value="" style="rounded=0;whiteSpace=wrap;html=1;strokeColor=#00A499;strokeWidth=2;shadow=1;" vertex="1" parent="1">
          <mxGeometry x="200" y="520" width="80" height="40" as="geometry" />
        </mxCell>
        <mxCell id="a1RNS2GRwDBVDoqZBIgc-48" value="" style="rounded=0;whiteSpace=wrap;html=1;strokeColor=#00A499;strokeWidth=2;shadow=1;" vertex="1" parent="1">
          <mxGeometry x="800" y="520" width="80" height="40" as="geometry" />
        </mxCell>
        <mxCell id="a1RNS2GRwDBVDoqZBIgc-49" value="" style="rounded=0;whiteSpace=wrap;html=1;strokeColor=#00A499;strokeWidth=2;shadow=1;" vertex="1" parent="1">
          <mxGeometry x="400" y="520" width="80" height="40" as="geometry" />
        </mxCell>
        <mxCell id="a1RNS2GRwDBVDoqZBIgc-50" value="" style="rounded=0;whiteSpace=wrap;html=1;strokeColor=#00A499;strokeWidth=2;shadow=1;" vertex="1" parent="1">
          <mxGeometry x="600" y="520" width="80" height="40" as="geometry" />
        </mxCell>
        <mxCell id="a1RNS2GRwDBVDoqZBIgc-51" value="" style="endArrow=none;html=1;rounded=0;strokeWidth=2;strokeColor=#05C3DE;startArrow=none;startFill=0;startSize=12;exitX=0.25;exitY=0;exitDx=0;exitDy=0;entryX=0.25;entryY=1;entryDx=0;entryDy=0;" edge="1" parent="1" source="a1RNS2GRwDBVDoqZBIgc-6" target="a1RNS2GRwDBVDoqZBIgc-47">
          <mxGeometry width="50" height="50" relative="1" as="geometry">
            <mxPoint x="110" y="770" as="sourcePoint" />
            <mxPoint x="110" y="730" as="targetPoint" />
          </mxGeometry>
        </mxCell>
        <mxCell id="a1RNS2GRwDBVDoqZBIgc-52" value="" style="endArrow=none;html=1;rounded=0;strokeWidth=2;strokeColor=#05C3DE;startArrow=none;startFill=0;startSize=12;exitX=0.25;exitY=0;exitDx=0;exitDy=0;entryX=0.5;entryY=1;entryDx=0;entryDy=0;" edge="1" parent="1" source="a1RNS2GRwDBVDoqZBIgc-18" target="a1RNS2GRwDBVDoqZBIgc-47">
          <mxGeometry width="50" height="50" relative="1" as="geometry">
            <mxPoint x="120" y="780" as="sourcePoint" />
            <mxPoint x="120" y="740" as="targetPoint" />
          </mxGeometry>
        </mxCell>
        <mxCell id="a1RNS2GRwDBVDoqZBIgc-53" value="" style="endArrow=none;html=1;rounded=0;strokeWidth=2;strokeColor=#05C3DE;startArrow=none;startFill=0;startSize=12;exitX=0.25;exitY=0;exitDx=0;exitDy=0;entryX=0.5;entryY=1;entryDx=0;entryDy=0;" edge="1" parent="1" source="a1RNS2GRwDBVDoqZBIgc-30" target="a1RNS2GRwDBVDoqZBIgc-47">
          <mxGeometry width="50" height="50" relative="1" as="geometry">
            <mxPoint x="130" y="790" as="sourcePoint" />
            <mxPoint x="130" y="750" as="targetPoint" />
          </mxGeometry>
        </mxCell>
        <mxCell id="a1RNS2GRwDBVDoqZBIgc-54" value="" style="endArrow=none;html=1;rounded=0;strokeWidth=2;strokeColor=#05C3DE;startArrow=none;startFill=0;startSize=12;exitX=0.25;exitY=0;exitDx=0;exitDy=0;entryX=0.75;entryY=1;entryDx=0;entryDy=0;" edge="1" parent="1" source="a1RNS2GRwDBVDoqZBIgc-42" target="a1RNS2GRwDBVDoqZBIgc-47">
          <mxGeometry width="50" height="50" relative="1" as="geometry">
            <mxPoint x="140" y="800" as="sourcePoint" />
            <mxPoint x="140" y="760" as="targetPoint" />
          </mxGeometry>
        </mxCell>
        <mxCell id="a1RNS2GRwDBVDoqZBIgc-55" value="" style="endArrow=none;html=1;rounded=0;strokeWidth=2;strokeColor=#05C3DE;startArrow=none;startFill=0;startSize=12;exitX=0.75;exitY=0;exitDx=0;exitDy=0;entryX=0.25;entryY=1;entryDx=0;entryDy=0;" edge="1" parent="1" source="a1RNS2GRwDBVDoqZBIgc-6" target="a1RNS2GRwDBVDoqZBIgc-49">
          <mxGeometry width="50" height="50" relative="1" as="geometry">
            <mxPoint x="80" y="410" as="sourcePoint" />
            <mxPoint x="200" y="330" as="targetPoint" />
          </mxGeometry>
        </mxCell>
        <mxCell id="a1RNS2GRwDBVDoqZBIgc-56" value="" style="endArrow=none;html=1;rounded=0;strokeWidth=2;strokeColor=#05C3DE;startArrow=none;startFill=0;startSize=12;exitX=0.5;exitY=1;exitDx=0;exitDy=0;entryX=0.75;entryY=0;entryDx=0;entryDy=0;" edge="1" parent="1" source="a1RNS2GRwDBVDoqZBIgc-49" target="a1RNS2GRwDBVDoqZBIgc-18">
          <mxGeometry width="50" height="50" relative="1" as="geometry">
            <mxPoint x="320" y="410" as="sourcePoint" />
            <mxPoint x="220" y="330" as="targetPoint" />
          </mxGeometry>
        </mxCell>
        <mxCell id="a1RNS2GRwDBVDoqZBIgc-57" value="" style="endArrow=none;html=1;rounded=0;strokeWidth=2;strokeColor=#05C3DE;startArrow=none;startFill=0;startSize=12;exitX=0.75;exitY=0;exitDx=0;exitDy=0;entryX=0.5;entryY=1;entryDx=0;entryDy=0;" edge="1" parent="1" source="a1RNS2GRwDBVDoqZBIgc-30" target="a1RNS2GRwDBVDoqZBIgc-49">
          <mxGeometry width="50" height="50" relative="1" as="geometry">
            <mxPoint x="560" y="410" as="sourcePoint" />
            <mxPoint x="220" y="330" as="targetPoint" />
          </mxGeometry>
        </mxCell>
        <mxCell id="a1RNS2GRwDBVDoqZBIgc-58" value="" style="endArrow=none;html=1;rounded=0;strokeWidth=2;strokeColor=#05C3DE;startArrow=none;startFill=0;startSize=12;exitX=0.75;exitY=0;exitDx=0;exitDy=0;entryX=0.75;entryY=1;entryDx=0;entryDy=0;" edge="1" parent="1" source="a1RNS2GRwDBVDoqZBIgc-42" target="a1RNS2GRwDBVDoqZBIgc-49">
          <mxGeometry width="50" height="50" relative="1" as="geometry">
            <mxPoint x="800" y="410" as="sourcePoint" />
            <mxPoint x="240" y="330" as="targetPoint" />
          </mxGeometry>
        </mxCell>
        <mxCell id="a1RNS2GRwDBVDoqZBIgc-60" value="" style="endArrow=none;html=1;rounded=0;strokeWidth=2;strokeColor=#05C3DE;startArrow=none;startFill=0;startSize=12;exitX=0.25;exitY=0;exitDx=0;exitDy=0;entryX=0.25;entryY=1;entryDx=0;entryDy=0;" edge="1" parent="1" source="a1RNS2GRwDBVDoqZBIgc-7" target="a1RNS2GRwDBVDoqZBIgc-50">
          <mxGeometry width="50" height="50" relative="1" as="geometry">
            <mxPoint x="240" y="460" as="sourcePoint" />
            <mxPoint x="360" y="380" as="targetPoint" />
          </mxGeometry>
        </mxCell>
        <mxCell id="a1RNS2GRwDBVDoqZBIgc-61" value="" style="endArrow=none;html=1;rounded=0;strokeWidth=2;strokeColor=#05C3DE;startArrow=none;startFill=0;startSize=12;exitX=0.25;exitY=0;exitDx=0;exitDy=0;entryX=0.5;entryY=1;entryDx=0;entryDy=0;" edge="1" parent="1" source="a1RNS2GRwDBVDoqZBIgc-31" target="a1RNS2GRwDBVDoqZBIgc-50">
          <mxGeometry width="50" height="50" relative="1" as="geometry">
            <mxPoint x="480" y="460" as="sourcePoint" />
            <mxPoint x="380" y="380" as="targetPoint" />
          </mxGeometry>
        </mxCell>
        <mxCell id="a1RNS2GRwDBVDoqZBIgc-62" value="" style="endArrow=none;html=1;rounded=0;strokeWidth=2;strokeColor=#05C3DE;startArrow=none;startFill=0;startSize=12;exitX=0.25;exitY=0;exitDx=0;exitDy=0;entryX=0.5;entryY=1;entryDx=0;entryDy=0;" edge="1" parent="1" source="a1RNS2GRwDBVDoqZBIgc-19" target="a1RNS2GRwDBVDoqZBIgc-50">
          <mxGeometry width="50" height="50" relative="1" as="geometry">
            <mxPoint x="720" y="460" as="sourcePoint" />
            <mxPoint x="380" y="380" as="targetPoint" />
          </mxGeometry>
        </mxCell>
        <mxCell id="a1RNS2GRwDBVDoqZBIgc-63" value="" style="endArrow=none;html=1;rounded=0;strokeWidth=2;strokeColor=#05C3DE;startArrow=none;startFill=0;startSize=12;exitX=0.25;exitY=0;exitDx=0;exitDy=0;entryX=0.75;entryY=1;entryDx=0;entryDy=0;" edge="1" parent="1" source="a1RNS2GRwDBVDoqZBIgc-43" target="a1RNS2GRwDBVDoqZBIgc-50">
          <mxGeometry width="50" height="50" relative="1" as="geometry">
            <mxPoint x="960" y="460" as="sourcePoint" />
            <mxPoint x="400" y="380" as="targetPoint" />
          </mxGeometry>
        </mxCell>
        <mxCell id="a1RNS2GRwDBVDoqZBIgc-64" value="" style="endArrow=none;html=1;rounded=0;strokeWidth=2;strokeColor=#05C3DE;startArrow=none;startFill=0;startSize=12;exitX=0.25;exitY=1;exitDx=0;exitDy=0;entryX=0.75;entryY=0;entryDx=0;entryDy=0;" edge="1" parent="1" source="a1RNS2GRwDBVDoqZBIgc-48" target="a1RNS2GRwDBVDoqZBIgc-7">
          <mxGeometry width="50" height="50" relative="1" as="geometry">
            <mxPoint x="190" y="410" as="sourcePoint" />
            <mxPoint x="310" y="330" as="targetPoint" />
          </mxGeometry>
        </mxCell>
        <mxCell id="a1RNS2GRwDBVDoqZBIgc-65" value="" style="endArrow=none;html=1;rounded=0;strokeWidth=2;strokeColor=#05C3DE;startArrow=none;startFill=0;startSize=12;exitX=0.75;exitY=0;exitDx=0;exitDy=0;entryX=0.75;entryY=1;entryDx=0;entryDy=0;" edge="1" parent="1" source="a1RNS2GRwDBVDoqZBIgc-31" target="a1RNS2GRwDBVDoqZBIgc-48">
          <mxGeometry width="50" height="50" relative="1" as="geometry">
            <mxPoint x="430" y="410" as="sourcePoint" />
            <mxPoint x="840" y="600" as="targetPoint" />
          </mxGeometry>
        </mxCell>
        <mxCell id="a1RNS2GRwDBVDoqZBIgc-66" value="" style="endArrow=none;html=1;rounded=0;strokeWidth=2;strokeColor=#05C3DE;startArrow=none;startFill=0;startSize=12;exitX=0.75;exitY=0;exitDx=0;exitDy=0;entryX=0.5;entryY=1;entryDx=0;entryDy=0;" edge="1" parent="1" source="a1RNS2GRwDBVDoqZBIgc-19" target="a1RNS2GRwDBVDoqZBIgc-48">
          <mxGeometry width="50" height="50" relative="1" as="geometry">
            <mxPoint x="670" y="410" as="sourcePoint" />
            <mxPoint x="330" y="330" as="targetPoint" />
          </mxGeometry>
        </mxCell>
        <mxCell id="a1RNS2GRwDBVDoqZBIgc-67" value="" style="endArrow=none;html=1;rounded=0;strokeWidth=2;strokeColor=#05C3DE;startArrow=none;startFill=0;startSize=12;exitX=0.75;exitY=0;exitDx=0;exitDy=0;entryX=0.75;entryY=1;entryDx=0;entryDy=0;" edge="1" parent="1" source="a1RNS2GRwDBVDoqZBIgc-43" target="a1RNS2GRwDBVDoqZBIgc-48">
          <mxGeometry width="50" height="50" relative="1" as="geometry">
            <mxPoint x="910" y="410" as="sourcePoint" />
            <mxPoint x="350" y="330" as="targetPoint" />
          </mxGeometry>
        </mxCell>
        <mxCell id="a1RNS2GRwDBVDoqZBIgc-70" value="" style="endArrow=baseDash;html=1;rounded=0;strokeWidth=2;strokeColor=#0047BB;startArrow=baseDash;startFill=0;startSize=6;exitX=0.25;exitY=0;exitDx=0;exitDy=0;endFill=0;dashed=1;opacity=50;" edge="1" parent="1">
          <mxGeometry width="50" height="50" relative="1" as="geometry">
            <mxPoint x="80" y="880" as="sourcePoint" />
            <mxPoint x="280" y="880" as="targetPoint" />
          </mxGeometry>
        </mxCell>
        <mxCell id="a1RNS2GRwDBVDoqZBIgc-71" value="Pod 1" style="text;strokeColor=none;align=center;fillColor=none;html=1;verticalAlign=middle;whiteSpace=wrap;rounded=0;fontColor=#666666;fontFamily=Lato;fontSource=https%3A%2F%2Ffonts.googleapis.com%2Fcss%3Ffamily%3DLato;" vertex="1" parent="1">
          <mxGeometry x="150" y="880" width="60" height="30" as="geometry" />
        </mxCell>
        <mxCell id="a1RNS2GRwDBVDoqZBIgc-72" value="" style="endArrow=baseDash;html=1;rounded=0;strokeWidth=2;strokeColor=#0047BB;startArrow=baseDash;startFill=0;startSize=6;exitX=0.25;exitY=0;exitDx=0;exitDy=0;endFill=0;dashed=1;opacity=50;" edge="1" parent="1">
          <mxGeometry width="50" height="50" relative="1" as="geometry">
            <mxPoint x="320" y="880" as="sourcePoint" />
            <mxPoint x="520" y="880" as="targetPoint" />
          </mxGeometry>
        </mxCell>
        <mxCell id="a1RNS2GRwDBVDoqZBIgc-73" value="Pod 2" style="text;strokeColor=none;align=center;fillColor=none;html=1;verticalAlign=middle;whiteSpace=wrap;rounded=0;fontColor=#666666;fontFamily=Lato;fontSource=https%3A%2F%2Ffonts.googleapis.com%2Fcss%3Ffamily%3DLato;" vertex="1" parent="1">
          <mxGeometry x="390" y="880" width="60" height="30" as="geometry" />
        </mxCell>
        <mxCell id="a1RNS2GRwDBVDoqZBIgc-74" value="" style="endArrow=baseDash;html=1;rounded=0;strokeWidth=2;strokeColor=#0047BB;startArrow=baseDash;startFill=0;startSize=6;exitX=0.25;exitY=0;exitDx=0;exitDy=0;endFill=0;dashed=1;opacity=50;" edge="1" parent="1">
          <mxGeometry width="50" height="50" relative="1" as="geometry">
            <mxPoint x="560" y="880" as="sourcePoint" />
            <mxPoint x="760" y="880" as="targetPoint" />
          </mxGeometry>
        </mxCell>
        <mxCell id="a1RNS2GRwDBVDoqZBIgc-75" value="Pod 3" style="text;strokeColor=none;align=center;fillColor=none;html=1;verticalAlign=middle;whiteSpace=wrap;rounded=0;fontColor=#666666;fontFamily=Lato;fontSource=https%3A%2F%2Ffonts.googleapis.com%2Fcss%3Ffamily%3DLato;" vertex="1" parent="1">
          <mxGeometry x="630" y="880" width="60" height="30" as="geometry" />
        </mxCell>
        <mxCell id="a1RNS2GRwDBVDoqZBIgc-76" value="" style="endArrow=baseDash;html=1;rounded=0;strokeWidth=2;strokeColor=#0047BB;startArrow=baseDash;startFill=0;startSize=6;exitX=0.25;exitY=0;exitDx=0;exitDy=0;endFill=0;dashed=1;opacity=50;" edge="1" parent="1">
          <mxGeometry width="50" height="50" relative="1" as="geometry">
            <mxPoint x="800" y="880" as="sourcePoint" />
            <mxPoint x="1000" y="880" as="targetPoint" />
          </mxGeometry>
        </mxCell>
        <mxCell id="a1RNS2GRwDBVDoqZBIgc-77" value="Pod 4" style="text;strokeColor=none;align=center;fillColor=none;html=1;verticalAlign=middle;whiteSpace=wrap;rounded=0;fontColor=#666666;fontFamily=Lato;fontSource=https%3A%2F%2Ffonts.googleapis.com%2Fcss%3Ffamily%3DLato;" vertex="1" parent="1">
          <mxGeometry x="870" y="880" width="60" height="30" as="geometry" />
        </mxCell>
        <mxCell id="a1RNS2GRwDBVDoqZBIgc-79" value="Core" style="text;strokeColor=none;align=left;fillColor=none;html=1;verticalAlign=middle;whiteSpace=wrap;rounded=0;fontColor=#666666;fontFamily=Lato;fontSource=https%3A%2F%2Ffonts.googleapis.com%2Fcss%3Ffamily%3DLato;" vertex="1" parent="1">
          <mxGeometry x="1040" y="520" width="60" height="30" as="geometry" />
        </mxCell>
        <mxCell id="a1RNS2GRwDBVDoqZBIgc-80" value="Aggregation" style="text;strokeColor=none;align=left;fillColor=none;html=1;verticalAlign=middle;whiteSpace=wrap;rounded=0;fontColor=#666666;fontFamily=Lato;fontSource=https%3A%2F%2Ffonts.googleapis.com%2Fcss%3Ffamily%3DLato;" vertex="1" parent="1">
          <mxGeometry x="1040" y="680" width="60" height="30" as="geometry" />
        </mxCell>
        <mxCell id="a1RNS2GRwDBVDoqZBIgc-81" value="Edge" style="text;strokeColor=none;align=left;fillColor=none;html=1;verticalAlign=middle;whiteSpace=wrap;rounded=0;fontColor=#666666;fontFamily=Lato;fontSource=https%3A%2F%2Ffonts.googleapis.com%2Fcss%3Ffamily%3DLato;" vertex="1" parent="1">
          <mxGeometry x="1040" y="760" width="60" height="30" as="geometry" />
        </mxCell>
      </root>
    </mxGraphModel>
  </diagram>
</mxfile>
